<svg xmlns="http://www.w3.org/2000/svg" width="500" height="500" viewBox="0 0 566.229 566.229" fill="#333"><path d="M131.581 409.416l25.184 25.184a18.362 18.362 0 0 0 25.967 0l251.866-251.866a18.37 18.37 0 0 0 0-25.967l-25.184-25.184c-3.584-3.583-8.283-5.376-12.983-5.376s-9.397 1.793-12.984 5.376L131.581 383.448c-7.169 7.173-7.169 18.795 0 25.968z"/><path d="M81.624 283.107l-50.383 50.368c-41.653 41.671-41.653 109.463 0 151.134l50.383 50.367c41.653 41.671 109.447 41.671 151.118 0l50.368-50.367c37.356-37.356 40.906-95.586 11.288-137.29l-52.922 52.94c3.026 11.794.505 24.731-8.73 33.948l-50.383 50.401c-13.914 13.913-36.436 13.913-50.368 0l-50.368-50.401c-13.932-13.914-13.932-36.417 0-50.364l50.368-50.365c9.217-9.217 22.105-11.723 33.896-8.767l52.957-52.941c-41.71-29.605-99.883-26.003-137.224 11.337zM484.607 31.239c-41.671-41.653-109.463-41.653-151.134 0l-50.367 50.386c-37.341 37.341-40.94 95.515-11.341 137.22l52.975-52.975c-2.992-11.774-.486-24.66 8.73-33.88l50.367-50.368c13.914-13.914 36.454-13.929 50.368 0l50.401 50.368c13.913 13.932 13.88 36.469 0 50.364l-50.401 50.383c-9.217 9.235-22.157 11.738-33.948 8.733l-52.94 52.941c41.671 29.636 99.934 26.053 137.29-11.304l50.367-50.364c41.671-41.671 41.671-109.465 0-151.118l-50.367-50.386z"/></svg>